<svg width="22" height="21" viewBox="0 0 22 21" fill="none" xmlns="http://www.w3.org/2000/svg">
<path fill-rule="evenodd" clip-rule="evenodd" d="M11.2229 0.275699C8.7301 0.276034 6.31874 1.16323 4.42016 2.77859C2.52158 4.39395 1.25963 6.63209 0.860061 9.09265C0.460491 11.5532 0.949362 14.0757 2.23922 16.2088C3.52909 18.3419 5.53579 19.9466 7.90038 20.7357C8.42538 20.8332 8.65038 20.5107 8.65038 20.2332L8.65038 18.4482C5.73288 19.0782 5.11788 17.0382 5.11788 17.0382C4.91272 16.3953 4.48092 15.8489 3.90288 15.5007C2.95038 14.8557 3.97788 14.8632 3.97788 14.8632C4.31059 14.9102 4.62815 15.0326 4.90631 15.2211C5.18448 15.4096 5.41589 15.6591 5.58288 15.9507C5.87339 16.4717 6.35893 16.8561 6.93276 17.0192C7.50658 17.1824 8.1217 17.111 8.64288 16.8207C8.68523 16.2886 8.91983 15.79 9.30288 15.4182C6.97788 15.1482 4.52538 14.2482 4.52538 10.2282C4.50838 9.18412 4.8953 8.17382 5.60538 7.4082C5.28398 6.50384 5.32156 5.51068 5.71038 4.6332C5.71038 4.6332 6.58788 4.3482 8.59788 5.7057C10.3165 5.23691 12.1293 5.23691 13.8479 5.7057C15.8504 4.3482 16.7279 4.6332 16.7279 4.6332C17.1167 5.51068 17.1543 6.50385 16.8329 7.4082C17.543 8.17382 17.9299 9.18412 17.9129 10.2282C17.9129 14.2632 15.4604 15.1482 13.1204 15.4107C13.371 15.6648 13.5643 15.9696 13.6872 16.3047C13.8102 16.6398 13.8598 16.9973 13.8329 17.3532L13.8329 20.2332C13.8329 20.5782 14.0204 20.8407 14.5829 20.7357C16.9506 19.9456 18.9594 18.3379 20.249 16.2008C21.5387 14.0637 22.0249 11.5371 21.6204 9.07409C21.2159 6.61104 19.9472 4.37263 18.0418 2.76028C16.1364 1.14792 13.7189 0.267077 11.2229 0.275699Z" fill="#8589A6"/>
</svg>
