<svg width="24" height="24" viewBox="0 0 24 24" fill="none" xmlns="http://www.w3.org/2000/svg">
<path d="M12 22C17.523 22 22 17.523 22 12C22 6.477 17.523 2 12 2C6.477 2 2 6.477 2 12C2 17.523 6.477 22 12 22Z" stroke="white" stroke-width="1.5" stroke-linecap="round" stroke-linejoin="round"/>
<path d="M13.5 9.17001C13.0476 9.01061 12.5636 8.96201 12.0885 9.02829C11.6134 9.09457 11.1612 9.27381 10.7697 9.55095C10.3782 9.8281 10.0588 10.1951 9.83846 10.6211C9.61807 11.0472 9.50305 11.5198 9.50305 11.9995C9.50305 12.4792 9.61807 12.9519 9.83846 13.3779C10.0588 13.8039 10.3782 14.1709 10.7697 14.4481C11.1612 14.7252 11.6134 14.9044 12.0885 14.9707C12.5636 15.037 13.0476 14.9884 13.5 14.829" stroke="white" stroke-width="1.5" stroke-linecap="round" stroke-linejoin="round"/>
</svg>
