<svg width="26" height="26" viewBox="0 0 26 26" fill="none" xmlns="http://www.w3.org/2000/svg">
<path d="M13 23.5625C7.17539 23.5625 2.4375 18.8246 2.4375 13C2.4375 7.17539 7.17539 2.4375 13 2.4375C18.8246 2.4375 23.5625 7.17539 23.5625 13C23.5625 18.8246 18.8246 23.5625 13 23.5625ZM19.985 18.6926C21.2418 17.1564 22.0035 15.2014 22.0213 13.0711C21.7242 13.1346 18.7408 13.7389 15.7396 13.3605C15.6762 13.5154 15.6127 13.6703 15.5467 13.8252C15.3588 14.2645 15.1582 14.7037 14.9475 15.1328C18.2812 16.4963 19.7945 18.4336 19.985 18.6926ZM13 22.0086C15.2928 22.0086 17.3875 21.1479 18.9795 19.7361C18.817 19.5051 17.4586 17.6795 14.2518 16.476C12.774 19.1928 11.1363 21.4221 10.885 21.7572C11.5781 21.9248 12.2865 22.0086 13 22.0086ZM9.16348 21.1504C9.40215 20.8254 11.0145 18.5885 12.5074 15.9326C8.2875 14.8129 4.57031 14.8281 4.1666 14.8332C4.75313 17.6338 6.63965 19.9596 9.16348 21.1504ZM3.97871 12.9873C3.97871 13.0787 3.98125 13.1727 3.98379 13.2641C4.37734 13.2564 8.74961 13.2006 13.2564 14.5488C13.5154 14.0436 13.7617 13.5307 13.9877 13.0178C13.8684 12.9848 13.749 12.9492 13.6322 12.9111C8.97813 11.4029 6.50254 7.30235 6.29688 6.95449C4.85723 8.5541 3.97871 10.6691 3.97871 12.9873ZM13 3.96602C10.9129 3.96602 8.99082 4.67695 7.4623 5.87031C7.6248 6.20293 9.45039 9.72969 14.5387 11.5045L14.5971 11.5248C15.8641 8.23418 16.3871 5.47422 16.5217 4.68203C15.4087 4.20633 14.2104 3.96269 13 3.96602ZM18.04 5.50723C17.9486 6.05566 17.4688 8.69629 16.2881 11.9387C19.1166 12.3906 21.5998 11.6492 21.907 11.5527C21.5059 9.04414 20.0662 6.87578 18.04 5.50723Z" fill="black"/>
</svg>
