<svg width="702" height="314" viewBox="0 0 702 314" fill="none" xmlns="http://www.w3.org/2000/svg">
<g clip-path="url(#clip0_116:165)">
<path d="M629.249 276.813C629.249 281.193 625.771 284.697 621.425 284.697H507.37C503.081 284.697 499.546 281.193 499.546 276.813V33.0413C499.546 28.7195 503.023 25.157 507.37 25.157H621.425C625.714 25.157 629.249 28.6611 629.249 33.0413V276.813Z" fill="#1B1E32"/>
<path d="M630.235 275.293C630.235 279.673 626.757 283.177 622.411 283.177H508.298C504.009 283.177 500.474 279.673 500.474 275.293V31.5215C500.474 27.1413 503.951 23.6371 508.298 23.6371H622.411C626.699 23.6371 630.235 27.1413 630.235 31.5215V275.293Z" stroke="url(#paint0_linear_116:165)" stroke-width="1.56101" stroke-miterlimit="10"/>
<path d="M617.774 59.2042H512.876V251.406H617.774V59.2042Z" fill="white"/>
<path d="M513.05 251.581V58.9121L583.581 58.6785L541.68 251.406L513.05 251.581Z" fill="white"/>
<path d="M556.632 43.6108H572.106C573.265 43.6108 574.192 44.5452 574.192 45.7133C574.192 46.8813 573.265 47.8158 572.106 47.8158H556.632C555.473 47.8158 554.546 46.8813 554.546 45.7133C554.546 44.5452 555.473 43.6108 556.632 43.6108Z" fill="white"/>
<path d="M564.456 37.9457C565.48 37.9457 566.31 37.109 566.31 36.0768C566.31 35.0447 565.48 34.2079 564.456 34.2079C563.432 34.2079 562.601 35.0447 562.601 36.0768C562.601 37.109 563.432 37.9457 564.456 37.9457Z" fill="white"/>
<path d="M564.572 261.218C567.933 261.218 570.657 263.963 570.657 267.35C570.657 270.737 567.933 273.482 564.572 273.482C561.21 273.482 558.487 270.737 558.487 267.35C558.487 263.963 561.21 261.218 564.572 261.218Z" fill="white" stroke="url(#paint1_linear_116:165)" stroke-width="0.520335" stroke-miterlimit="10"/>
<path d="M564.572 273.482C567.933 273.482 570.657 270.737 570.657 267.35C570.657 263.963 567.933 261.218 564.572 261.218C561.211 261.218 558.487 263.963 558.487 267.35C558.487 270.737 561.211 273.482 564.572 273.482Z" stroke="url(#paint2_linear_116:165)" stroke-miterlimit="10"/>
</g>
<path d="M625.122 285.747C625.122 278.956 622.331 272.444 617.364 267.642C612.396 262.84 605.659 260.142 598.634 260.142C591.609 260.142 584.871 262.84 579.904 267.642C574.936 272.444 572.146 278.956 572.146 285.747H625.122Z" fill="#F74172"/>
<path opacity="0.1" d="M594.219 260.478C600.74 261.108 606.79 264.036 611.207 268.7C615.624 273.364 618.096 279.435 618.149 285.747H625.122C625.122 278.956 622.321 272.444 617.336 267.642C612.35 262.84 605.588 260.142 598.538 260.142C597.091 260.139 595.647 260.251 594.219 260.478Z" fill="#1B1E32"/>
<path opacity="0.2" d="M548.306 96.9255V115.34H592.079V100.194H606.58V81.788H562.79V96.9299L548.306 96.9255ZM603.202 96.7556H566.16V85.226H603.202V96.7556ZM551.676 100.368H588.718V111.897H551.676V100.368Z" fill="#9EBAB7"/>
<path opacity="0.2" d="M98.8894 134.009V152.423H143.325V137.277H158.046V118.872H113.593V134.013L98.8894 134.009ZM154.617 133.839H117.014V122.31H154.617V133.839ZM102.31 137.451H139.914V148.981H102.31V137.451Z" fill="#9EBAB7"/>
<path opacity="0.2" d="M132.441 227.622C132.439 227.113 132.227 226.626 131.853 226.268C131.478 225.909 130.972 225.707 130.443 225.707H82.3412C82.0794 225.707 81.8201 225.757 81.5783 225.853C81.3364 225.95 81.1166 226.091 80.9315 226.269C80.7464 226.448 80.5995 226.659 80.4993 226.892C80.3992 227.125 80.3476 227.374 80.3476 227.626V231.56H86.2415C85.5933 232.165 85.2175 232.99 85.1947 233.859C85.1947 236.183 88.0656 238.069 91.6098 238.069C95.1539 238.069 98.0248 236.183 98.0248 233.859C98.0021 232.99 97.6263 232.165 96.9781 231.56H132.441V227.622Z" fill="white"/>
<path opacity="0.5" d="M35.012 253.079C34.9125 252.929 24.8736 237.796 20.9765 216.404C18.6884 203.837 18.9306 191.6 21.7031 180.03C25.1633 165.57 32.6115 152.124 43.827 140.062L44.147 140.353C32.9791 152.347 25.5742 165.741 22.127 180.129C19.3718 191.638 19.1296 203.82 21.409 216.327C25.3018 237.633 35.2802 252.693 35.3797 252.843L35.012 253.079Z" fill="#A3A3A3"/>
<path opacity="0.5" d="M31.4802 253.079C31.3807 252.929 21.3418 237.796 17.4447 216.404C15.1566 203.837 15.3988 191.6 18.1713 180.03C21.6315 165.57 29.0797 152.124 40.2952 140.062L40.6152 140.353C29.4473 152.347 22.0424 165.741 18.5952 180.129C15.84 191.638 15.5978 203.82 17.8772 216.327C21.77 237.633 31.7484 252.693 31.8479 252.843L31.4802 253.079Z" fill="#A3A3A3"/>
<path opacity="0.5" d="M38.398 124.169L37.9665 124.07C38.0096 123.893 42.308 106.145 55.3928 88.5656C63.0788 78.2401 72.2537 69.9884 82.6543 64.0393C95.6571 56.6041 110.623 52.772 127.144 52.651V53.083C110.705 53.204 95.8081 57.0188 82.8743 64.4108C72.517 70.3253 63.3982 78.5382 55.7467 88.8119C42.7136 106.318 38.4283 123.992 38.398 124.169Z" fill="#A3A3A3"/>
<path opacity="0.5" d="M42.8127 128.584L42.3812 128.485C42.4243 128.307 46.7226 110.56 59.8075 92.9803C67.4935 82.6548 76.6684 74.403 87.0689 68.454C100.072 61.0187 115.038 57.1866 131.558 57.0657V57.4977C115.12 57.6187 100.223 61.4335 87.289 68.8255C76.9316 74.74 67.8128 82.9529 60.1613 93.2266C47.1283 110.732 42.8429 128.407 42.8127 128.584Z" fill="#A3A3A3"/>
<path d="M44.147 133.882H36.2006V262.791H44.147V133.882Z" fill="#F6E7B0"/>
<path d="M51.2106 133.882H44.1471V262.791H51.2106V133.882Z" fill="#9EBAB7"/>
<path d="M142.334 61.3198L137.734 55.0661L33.6231 131.666L38.223 137.919L142.334 61.3198Z" fill="#F6E7B0"/>
<path d="M146.449 67.8697L141.869 61.5812L37.1776 137.848L41.7576 144.136L146.449 67.8697Z" fill="#9EBAB7"/>
<path d="M44.1471 150.657C52.4369 150.657 59.1571 143.937 59.1571 135.647C59.1571 127.358 52.4369 120.637 44.1471 120.637C35.8573 120.637 29.1371 127.358 29.1371 135.647C29.1371 143.937 35.8573 150.657 44.1471 150.657Z" fill="#1B1E32"/>
<path opacity="0.2" d="M59.157 135.739C59.1545 138.818 58.1999 141.822 56.4241 144.338C54.6482 146.853 52.1381 148.758 49.2375 149.792C46.3369 150.825 43.1878 150.936 40.2216 150.11C37.2555 149.283 34.6174 147.56 32.6688 145.175C35.5372 147.491 39.1607 148.663 42.8415 148.466C46.5224 148.27 50.0003 146.718 52.6058 144.11C55.2112 141.502 56.7598 138.022 56.9534 134.341C57.1471 130.659 55.9721 127.036 53.6547 124.169C55.3746 125.567 56.761 127.331 57.7129 129.332C58.6648 131.334 59.1582 133.522 59.157 135.739Z" fill="#6AB7CC"/>
<path opacity="0.2" d="M201.017 51.627L168.564 100.684C167.526 102.252 165.908 103.344 164.065 103.719C162.222 104.094 160.305 103.722 158.737 102.685L130.675 84.1144C130.675 84.1144 172.939 101.065 195.396 39.4068L199.016 41.802C200.584 42.8398 201.676 44.4578 202.051 46.3002C202.426 48.1427 202.054 50.0587 201.017 51.627Z" fill="#6AB7CC"/>
<path d="M44.5885 251.313C48.9206 251.313 53.0754 253.037 56.1387 256.106C59.202 259.176 60.9229 263.339 60.9229 267.679V268.971H28.2541V267.679C28.2541 263.339 29.975 259.176 33.0383 256.106C36.1016 253.037 40.2563 251.313 44.5885 251.313Z" fill="#1B1E32"/>
<path opacity="0.2" d="M60.9229 267.679V268.971H57.1834V267.679C57.1831 263.674 55.7663 259.809 53.2011 256.814C50.6359 253.819 47.1005 251.903 43.2641 251.429C43.8845 251.351 44.5089 251.312 45.1339 251.313C49.3214 251.313 53.3374 253.037 56.2984 256.106C59.2594 259.176 60.9229 263.339 60.9229 267.679Z" fill="#6AB7CC"/>
<path opacity="0.25" d="M41.8907 263.395C43.9453 260.541 44.0341 257.092 42.0889 255.691C40.1437 254.29 36.9012 255.468 34.8466 258.321C32.7919 261.174 32.7032 264.623 34.6483 266.024C36.5935 267.425 39.836 266.248 41.8907 263.395Z" fill="white"/>
<path opacity="0.25" d="M50.4398 261.223C51.2599 259.802 51.1392 258.197 50.1703 257.637C49.2014 257.078 47.7511 257.776 46.9311 259.197C46.111 260.617 46.2317 262.222 47.2006 262.782C48.1695 263.341 49.6198 262.643 50.4398 261.223Z" fill="#1B1E32"/>
<path opacity="0.25" d="M152.503 36C153.295 35.2088 152.996 33.6271 151.836 32.4672C150.676 31.3073 149.095 31.0085 148.304 31.7997C147.513 32.5909 147.811 34.1726 148.971 35.3325C150.131 36.4924 151.712 36.7912 152.503 36Z" fill="white"/>
<path d="M17.7593 268.089H71.4177C75.8936 268.089 80.1861 269.856 83.3511 273.002C86.516 276.148 88.2941 280.415 88.2941 284.864H0.882935C0.882935 280.415 2.66098 276.148 5.82592 273.002C8.99086 269.856 13.2834 268.089 17.7593 268.089Z" fill="#1B1E32"/>
<g opacity="0.25">
<path opacity="0.25" d="M65.1348 273.164H6.40045C9.53356 270.118 13.7328 268.416 18.1025 268.422H68.7165V268.465C68.8686 269.017 68.8912 269.596 68.7826 270.157C68.674 270.719 68.4371 271.248 68.0903 271.703C67.7436 272.158 67.2964 272.526 66.7837 272.78C66.271 273.033 65.7067 273.165 65.1348 273.164Z" fill="#1B1E32"/>
</g>
<path opacity="0.25" d="M144.807 18.8268C143.09 17.047 140.851 15.8514 138.41 15.4103L141.464 11.1527C137.138 11.6314 132.971 13.0498 129.258 15.3074C125.546 17.5649 122.378 20.6063 119.981 24.2159L111.79 36.5161C109.617 39.7653 108.115 43.4113 107.371 47.2422C106.628 51.073 106.659 55.0124 107.461 58.8315L132.737 23.3575C133.387 25.0519 134.398 26.5869 135.7 27.8578C139.387 31.5214 144.427 32.4666 146.932 29.9693C149.437 27.472 148.499 22.4904 144.807 18.8268Z" fill="white"/>
<path opacity="0.26" d="M344.347 313.118C455.04 313.118 544.774 307.782 544.774 301.199C544.774 294.616 455.04 289.279 344.347 289.279C233.654 289.279 143.919 294.616 143.919 301.199C143.919 307.782 233.654 313.118 344.347 313.118Z" fill="#1B1E32"/>
<path d="M502.389 266.323H192.481V73.9003C192.481 72.9481 192.86 72.0348 193.534 71.3614C194.208 70.6881 195.123 70.3098 196.077 70.3098H498.798C499.751 70.3098 500.666 70.6881 501.34 71.3614C502.014 72.0348 502.393 72.9481 502.393 73.9003L502.389 266.323Z" fill="#1B1E32"/>
<path d="M489.149 84.4369H206.608V254.844H489.149V84.4369Z" fill="white"/>
<path d="M487.383 252.196H207.491V253.961H487.383V252.196Z" fill="#537D6F"/>
<path d="M487.383 86.2027H207.491V87.9686H487.383V86.2027Z" fill="#537D6F"/>
<path d="M489.149 82.6709H205.725V86.2027H489.149V82.6709Z" fill="#5B4C52"/>
<path d="M485.703 259.259H209.171C208.257 259.259 207.381 258.887 206.734 258.225C206.088 257.562 205.725 256.664 205.725 255.727H489.149C489.149 256.664 488.786 257.562 488.14 258.225C487.494 258.887 486.617 259.259 485.703 259.259Z" fill="#756B6F"/>
<path d="M487.426 86.1627V254.002H207.448V86.1627H487.426ZM489.149 84.4369H205.725V255.727H489.149V84.4369Z" fill="#1B1E32"/>
<path d="M347.437 79.1392C348.656 79.1392 349.645 78.1509 349.645 76.9318C349.645 75.7128 348.656 74.7245 347.437 74.7245C346.218 74.7245 345.23 75.7128 345.23 76.9318C345.23 78.1509 346.218 79.1392 347.437 79.1392Z" fill="#1B1E32"/>
<path d="M352.293 78.2562C352.781 78.2562 353.176 77.8609 353.176 77.3733C353.176 76.8857 352.781 76.4904 352.293 76.4904C351.806 76.4904 351.41 76.8857 351.41 77.3733C351.41 77.8609 351.806 78.2562 352.293 78.2562Z" fill="#BD6965"/>
<path d="M347.437 78.2562C348.169 78.2562 348.762 77.8609 348.762 77.3733C348.762 76.8857 348.169 76.4904 347.437 76.4904C346.706 76.4904 346.113 76.8857 346.113 77.3733C346.113 77.8609 346.706 78.2562 347.437 78.2562Z" fill="#1B1E32"/>
<path d="M314.327 102.096H244.575V168.316H314.327V102.096Z" fill="#FFB5C7"/>
<path d="M451.183 195.687H322.273V237.186H451.183V195.687Z" fill="#1B1E32"/>
<path d="M451.183 148.892H322.273V190.39H451.183V148.892Z" fill="#1B1E32"/>
<path d="M451.183 102.096H322.273V143.594H451.183V102.096Z" fill="url(#paint3_linear_116:165)"/>
<path d="M314.327 175.38H244.575V237.186H314.327V175.38Z" fill="#FE4370"/>
<path d="M175.728 265.44H164.45C162.042 265.44 160.277 267.528 160.782 269.735C162.884 278.887 171.572 285.747 181.969 285.747H515.554C525.951 285.747 534.639 278.887 536.741 269.735C537.246 267.528 535.481 265.44 533.073 265.44H528.157" fill="#FAF9FF"/>
<g opacity="0.5">
<path opacity="0.5" d="M536.311 269.81C534.212 278.746 525.536 285.445 515.153 285.445H182.013C171.63 285.445 162.954 278.746 160.855 269.81C160.738 269.311 160.741 268.792 160.864 268.294C160.987 267.797 161.226 267.335 161.561 266.948C164.497 274.707 172.544 280.272 182.013 280.272H515.153C524.635 280.272 532.669 274.703 535.604 266.948C535.94 267.335 536.178 267.797 536.301 268.294C536.424 268.792 536.428 269.311 536.311 269.81Z" fill="#7A5BF5"/>
</g>
<path d="M381.638 273.386H315.002C312.949 273.386 310.981 272.549 309.53 271.059C308.079 269.568 307.263 267.547 307.263 265.44H389.377C389.377 267.547 388.561 269.568 387.11 271.059C385.659 272.549 383.691 273.386 381.638 273.386Z" fill="#1B1E32"/>
<path d="M390.26 265.44C390.26 267.547 389.441 269.568 387.984 271.059C386.527 272.549 384.55 273.386 382.489 273.386H315.578C314.272 273.388 312.986 273.051 311.841 272.408C310.696 271.765 309.729 270.837 309.029 269.709C310.274 270.528 311.723 270.963 313.204 270.962H380.115C381.761 270.963 383.364 270.428 384.694 269.436C386.024 268.445 387.011 267.047 387.514 265.444L390.26 265.44Z" fill="#1B1E32"/>
<g opacity="0.15">
<path opacity="0.15" d="M502.347 114.741H467.435V158.28H502.347V114.741Z" fill="#1B1E32"/>
</g>
<path d="M526.233 109.159H467.076V153.306H526.233V109.159Z" fill="#F7F2E1"/>
<path d="M526.233 153.306H467.076V151.54H524.71H526.233" fill="#E6E2BD"/>
<path d="M508.574 117.989H475.022V120.637H508.574V117.989Z" fill="#64585C"/>
<path d="M493.564 125.052H475.022V127.701H493.564V125.052Z" fill="#64585C"/>
<path d="M493.564 138.296H475.022V140.062H493.564V138.296Z" fill="#64585C"/>
<path d="M493.564 144.477H475.022V147.126H493.564V144.477Z" fill="#64585C"/>
<path d="M516.52 131.233H475.022V133.882H516.52V131.233Z" fill="#64585C"/>
<path d="M444.119 155.072H330.22V157.721H444.119V155.072Z" fill="white"/>
<path d="M444.119 160.37H330.22V163.902H444.119V160.37Z" fill="white"/>
<path d="M444.119 166.55H330.22V169.199H444.119V166.55Z" fill="white"/>
<path d="M444.119 172.731H330.22V175.38H444.119V172.731Z" fill="white"/>
<g opacity="0.15">
<path opacity="0.15" d="M227.791 144.485H192.879V188.023H227.791V144.485Z" fill="#1B1E32"/>
</g>
<path d="M227.799 182.443H169.525V181.56H226.299H227.799" fill="#E6E2BD"/>
<path d="M210.14 148.009H176.588V150.657H210.14V148.009Z" fill="#64585C"/>
<path d="M195.13 154.189H176.588V156.838H195.13V154.189Z" fill="#64585C"/>
<path d="M195.13 167.433H176.588V170.082H195.13V167.433Z" fill="#64585C"/>
<path d="M195.13 174.497H176.588V177.146H195.13V174.497Z" fill="#64585C"/>
<path d="M218.086 161.253H176.588V163.902H218.086V161.253Z" fill="#64585C"/>
<path d="M664.946 305.172H35.2261C23.0843 305.172 13.2441 303.104 13.2441 291.045H686.928C686.928 303.1 677.088 305.172 664.946 305.172Z" fill="#F54172"/>
<path opacity="0.7" d="M13.2441 292.811H686.928C686.928 294.918 686.065 296.94 684.529 298.43C682.994 299.92 680.911 300.757 678.739 300.757H21.4335C19.2615 300.757 17.1785 299.92 15.6427 298.43C14.1069 296.94 13.2441 294.918 13.2441 292.811Z" fill="#1B1E32"/>
<path d="M694.526 284.864H3.88003C1.73715 284.864 0 286.643 0 288.838C0 291.032 1.73715 292.811 3.88003 292.811H694.526C696.669 292.811 698.406 291.032 698.406 288.838C698.406 286.643 696.669 284.864 694.526 284.864Z" fill="#1B1E32"/>
<path d="M702 290.862C701.47 292.119 699.413 293.059 696.959 293.059H7.90585C5.05994 293.059 3.59387 291.785 3.59387 290.229V287.871C3.59387 286.534 5.31866 285.402 7.60832 285.113C7.52189 285.312 7.47638 285.527 7.47465 285.746V288.103C7.47465 289.659 9.80312 290.933 12.649 290.933H700.84C701.228 290.934 701.615 290.91 702 290.862Z" fill="#FE4370"/>
<path d="M42.4156 287.57C49.2462 288.189 56.1065 288.494 62.9705 288.481C65.6072 288.481 67.7441 288.446 69.2175 288.43C70.691 288.414 71.5138 288.43 71.5182 288.497C71.5225 288.564 70.7125 288.683 69.2391 288.821C67.7656 288.959 65.6287 289.101 62.9834 289.192C56.0828 289.416 49.1735 289.209 42.3036 288.572L36.4572 288.016C34.5659 287.815 32.7521 287.688 31.0158 287.621C27.5433 287.448 24.4112 287.444 21.7788 287.511C16.5141 287.653 13.2656 288.008 13.2441 287.85C13.2441 287.787 14.0325 287.609 15.4973 287.404C16.9621 287.199 19.0904 286.954 21.74 286.8C24.8422 286.618 27.9527 286.582 31.0589 286.694C32.8124 286.757 34.6563 286.864 36.5477 287.053L42.4156 287.57Z" fill="#C8935F"/>
<path d="M105.987 287.573C112.818 288.191 119.678 288.495 126.542 288.483C129.179 288.483 131.316 288.447 132.789 288.431C134.263 288.416 135.086 288.431 135.09 288.498C135.094 288.565 134.284 288.684 132.811 288.822C131.337 288.959 129.2 289.101 126.555 289.192C119.655 289.416 112.745 289.209 105.875 288.573L100.029 288.014C98.1376 287.813 96.3238 287.687 94.5876 287.62C91.1151 287.446 87.983 287.442 85.3506 287.509C80.0859 287.651 76.8374 288.006 76.8159 287.848C76.8159 287.785 77.6043 287.608 79.0691 287.403C80.5339 287.198 82.6622 286.954 85.3118 286.8C88.414 286.618 91.5245 286.582 94.6307 286.694C96.3842 286.757 98.2281 286.863 100.119 287.052L105.987 287.573Z" fill="#C8935F"/>
<path d="M254.321 287.573C261.152 288.191 268.012 288.495 274.876 288.483C277.513 288.483 279.65 288.447 281.123 288.431C282.597 288.416 283.42 288.431 283.424 288.498C283.428 288.565 282.618 288.684 281.145 288.822C279.671 288.959 277.535 289.101 274.889 289.192C267.989 289.416 261.079 289.209 254.209 288.573L248.363 288.014C246.472 287.813 244.658 287.687 242.922 287.62C239.449 287.446 236.317 287.442 233.685 287.509C228.42 287.651 225.171 288.006 225.15 287.848C225.15 287.785 225.938 287.608 227.403 287.403C228.868 287.198 230.996 286.954 233.646 286.8C236.748 286.618 239.859 286.582 242.965 286.694C244.718 286.757 246.562 286.863 248.454 287.052L254.321 287.573Z" fill="#C8935F"/>
<path d="M400.89 287.573C407.72 288.191 414.58 288.495 421.444 288.483C424.081 288.483 426.218 288.447 427.691 288.431C429.165 288.416 429.988 288.431 429.992 288.498C429.996 288.565 429.186 288.684 427.713 288.822C426.24 288.959 424.103 289.101 421.457 289.192C414.557 289.416 407.647 289.209 400.778 288.573L394.931 288.014C393.04 287.813 391.226 287.687 389.49 287.62C386.017 287.446 382.885 287.442 380.253 287.509C374.988 287.651 371.74 288.006 371.718 287.848C371.718 287.785 372.506 287.608 373.971 287.403C375.436 287.198 377.564 286.954 380.214 286.8C383.316 286.618 386.427 286.582 389.533 286.694C391.286 286.757 393.13 286.863 395.022 287.052L400.89 287.573Z" fill="#C8935F"/>
<path d="M442.399 289.005C446.507 289.691 450.654 290.2 454.822 290.531C456.422 290.662 457.721 290.747 458.617 290.81C459.088 290.813 459.556 290.865 460.012 290.963C459.55 291.038 459.078 291.061 458.609 291.034C457.703 291.034 456.4 291.011 454.787 290.933C450.584 290.719 446.403 290.261 442.272 289.563L438.774 288.96C437.642 288.752 436.549 288.588 435.499 288.458C433.405 288.19 431.503 288.029 429.898 287.94C426.693 287.761 424.699 287.802 424.695 287.709C425.151 287.609 425.622 287.561 426.094 287.568C426.995 287.523 428.306 287.49 429.92 287.534C431.821 287.583 433.719 287.716 435.604 287.933C436.662 288.055 437.791 288.204 438.914 288.405L442.399 289.005Z" fill="#C8935F"/>
<path d="M295.388 289.005C299.394 289.691 303.436 290.2 307.5 290.531C309.061 290.662 310.327 290.747 311.201 290.81C311.66 290.813 312.116 290.865 312.561 290.963C312.11 291.038 311.65 291.061 311.193 291.034C310.31 291.034 309.04 291.011 307.466 290.933C303.368 290.719 299.292 290.261 295.265 289.563L291.854 288.96C290.75 288.752 289.684 288.588 288.661 288.458C286.619 288.19 284.764 288.029 283.2 287.94C280.075 287.761 278.131 287.802 278.126 287.709C278.572 287.609 279.031 287.561 279.491 287.568C280.369 287.523 281.648 287.49 283.221 287.534C285.075 287.583 286.925 287.716 288.763 287.933C289.795 288.055 290.895 288.204 291.991 288.405L295.388 289.005Z" fill="#C8935F"/>
<path d="M148.38 289.005C152.488 289.691 156.634 290.2 160.803 290.531C162.403 290.662 163.702 290.747 164.598 290.81C165.068 290.813 165.537 290.865 165.993 290.963C165.53 291.038 165.059 291.061 164.589 291.034C163.684 291.034 162.381 291.011 160.768 290.933C156.564 290.719 152.383 290.261 148.253 289.563L144.755 288.96C143.622 288.752 142.529 288.588 141.48 288.458C139.385 288.19 137.483 288.029 135.879 287.94C132.673 287.761 130.68 287.802 130.675 287.709C131.132 287.609 131.603 287.561 132.074 287.568C132.975 287.523 134.287 287.49 135.9 287.534C137.802 287.583 139.699 287.716 141.585 287.933C142.643 288.055 143.771 288.204 144.895 288.405L148.38 289.005Z" fill="#C8935F"/>
<path d="M524.953 289.005C528.958 289.691 533.001 290.2 537.065 290.531C538.625 290.662 539.892 290.747 540.766 290.81C541.224 290.813 541.681 290.865 542.126 290.963C541.675 291.038 541.215 291.061 540.757 291.034C539.875 291.034 538.604 291.011 537.031 290.933C532.933 290.719 528.856 290.261 524.829 289.563L521.419 288.96C520.315 288.752 519.249 288.588 518.226 288.458C516.183 288.19 514.329 288.029 512.764 287.94C509.639 287.761 507.695 287.802 507.691 287.709C508.136 287.609 508.595 287.561 509.055 287.568C509.933 287.523 511.212 287.49 512.786 287.534C514.64 287.583 516.49 287.716 518.328 287.933C519.36 288.055 520.46 288.204 521.555 288.405L524.953 289.005Z" fill="#C8935F"/>
<path d="M612.807 289.005C616.915 289.691 621.061 290.2 625.229 290.531C626.83 290.662 628.128 290.747 629.025 290.81C629.495 290.813 629.964 290.865 630.42 290.963C629.957 291.038 629.486 291.061 629.016 291.034C628.111 291.034 626.808 291.011 625.194 290.933C620.991 290.719 616.81 290.261 612.68 289.563L609.182 288.96C608.049 288.752 606.956 288.588 605.907 288.458C603.812 288.19 601.91 288.029 600.305 287.94C597.1 287.761 595.106 287.802 595.102 287.709C595.559 287.609 596.03 287.561 596.501 287.568C597.402 287.523 598.714 287.49 600.327 287.534C602.229 287.583 604.126 287.716 606.012 287.933C607.07 288.055 608.198 288.204 609.322 288.405L612.807 289.005Z" fill="#C8935F"/>
<path d="M555.404 287.573C562.235 288.191 569.095 288.495 575.959 288.483C578.596 288.483 580.733 288.447 582.206 288.431C583.68 288.416 584.502 288.431 584.507 288.498C584.511 288.565 583.701 288.684 582.228 288.822C580.754 288.959 578.617 289.101 575.972 289.192C569.071 289.416 562.162 289.209 555.292 288.573L549.446 288.014C547.554 287.813 545.741 287.687 544.004 287.62C540.532 287.446 537.4 287.442 534.767 287.509C529.503 287.651 526.254 288.006 526.233 287.848C526.233 287.785 527.021 287.608 528.486 287.403C529.951 287.198 532.079 286.954 534.729 286.8C537.831 286.618 540.941 286.582 544.047 286.694C545.801 286.757 547.645 286.863 549.536 287.052L555.404 287.573Z" fill="#FFE459"/>
<path d="M477.705 287.573C484.536 288.191 491.396 288.495 498.26 288.483C500.897 288.483 503.034 288.447 504.507 288.431C505.981 288.416 506.804 288.431 506.808 288.498C506.812 288.565 506.002 288.684 504.529 288.822C503.055 288.959 500.919 289.101 498.273 289.192C491.373 289.416 484.463 289.209 477.593 288.573L471.747 288.014C469.856 287.813 468.042 287.687 466.306 287.62C462.833 287.446 459.701 287.442 457.069 287.509C451.804 287.651 448.555 288.006 448.534 287.848C448.534 287.785 449.322 287.608 450.787 287.403C452.252 287.198 454.38 286.954 457.03 286.8C460.132 286.618 463.243 286.582 466.349 286.694C468.102 286.757 469.946 286.863 471.838 287.052L477.705 287.573Z" fill="#C8935F"/>
<path d="M660.474 287.573C667.305 288.191 674.165 288.495 681.029 288.483C683.666 288.483 685.803 288.447 687.276 288.431C688.75 288.416 689.572 288.431 689.577 288.498C689.581 288.565 688.771 288.684 687.298 288.822C685.824 288.959 683.687 289.101 681.042 289.192C674.141 289.416 667.232 289.209 660.362 288.573L654.516 288.014C652.625 287.813 650.811 287.687 649.074 287.62C645.602 287.446 642.47 287.442 639.838 287.509C634.573 287.651 631.324 288.006 631.303 287.848C631.303 287.785 632.091 287.608 633.556 287.403C635.021 287.198 637.149 286.954 639.799 286.8C642.901 286.618 646.011 286.582 649.118 286.694C650.871 286.757 652.715 286.863 654.606 287.052L660.474 287.573Z" fill="#C8935F"/>
<path d="M326.723 287.573C333.553 288.191 340.413 288.495 347.277 288.483C349.914 288.483 352.051 288.447 353.524 288.431C354.998 288.416 355.821 288.431 355.825 288.498C355.829 288.565 355.019 288.684 353.546 288.822C352.073 288.959 349.936 289.101 347.29 289.192C340.39 289.416 333.48 289.209 326.611 288.573L320.764 288.014C318.873 287.813 317.059 287.687 315.323 287.62C311.85 287.446 308.718 287.442 306.086 287.509C300.821 287.651 297.573 288.006 297.551 287.848C297.551 287.785 298.339 287.608 299.804 287.403C301.269 287.198 303.397 286.954 306.047 286.8C309.149 286.618 312.26 286.582 315.366 286.694C317.119 286.757 318.963 286.863 320.855 287.052L326.723 287.573Z" fill="#C8935F"/>
<path d="M183.686 287.573C190.517 288.191 197.377 288.495 204.241 288.483C206.878 288.483 209.015 288.447 210.488 288.431C211.962 288.416 212.784 288.431 212.789 288.498C212.793 288.565 211.983 288.684 210.51 288.822C209.036 288.959 206.899 289.101 204.254 289.192C197.353 289.416 190.444 289.209 183.574 288.573L177.728 288.014C175.836 287.813 174.023 287.687 172.286 287.62C168.814 287.446 165.682 287.442 163.049 287.509C157.785 287.651 154.536 288.006 154.515 287.848C154.515 287.785 155.303 287.608 156.768 287.403C158.233 287.198 160.361 286.954 163.011 286.8C166.113 286.618 169.223 286.582 172.329 286.694C174.083 286.757 175.927 286.863 177.818 287.052L183.686 287.573Z" fill="#C8935F"/>
<g opacity="0.2">
<path opacity="0.2" d="M102.581 203.594C103.607 201.154 104.396 198.852 104.465 196.697C104.499 194.764 104.135 192.845 103.396 191.058C102.788 189.468 102.163 188.196 101.78 187.286C101.396 186.377 101.224 185.838 101.349 185.76C101.474 185.683 101.887 186.066 102.508 186.847C103.385 187.965 104.155 189.163 104.81 190.425C105.274 191.319 105.656 192.254 105.952 193.218C106.297 194.357 106.477 195.54 106.486 196.731C106.484 198.042 106.305 199.347 105.956 200.611C105.593 201.911 105.143 203.185 104.611 204.426C104.094 205.68 103.564 206.87 103.107 208.016C102.879 208.59 102.676 209.15 102.486 209.702L102.249 210.499L102.064 211.297C101.673 213.174 101.714 215.115 102.185 216.974C102.386 217.667 102.676 218.33 103.047 218.948C103.228 219.203 103.396 219.453 103.573 219.66C103.749 219.867 103.917 220.061 104.094 220.207C104.271 220.354 104.422 220.492 104.56 220.617C104.698 220.742 104.831 220.811 104.93 220.897C105.129 221.061 105.232 221.186 105.206 221.259C105.18 221.332 105.029 221.345 104.775 221.306C104.605 221.28 104.436 221.243 104.271 221.194C104.086 221.121 103.87 221.026 103.624 220.91C103.363 220.767 103.112 220.606 102.874 220.427C102.598 220.202 102.337 219.959 102.094 219.698C101.529 219.039 101.072 218.294 100.741 217.491C99.9577 215.407 99.7333 213.154 100.09 210.956C100.137 210.65 100.202 210.34 100.262 210.025C100.323 209.711 100.422 209.4 100.504 209.081C100.688 208.469 100.892 207.858 101.116 207.249C101.568 206.029 102.09 204.818 102.581 203.594Z" fill="#1B1E32"/>
<path opacity="0.2" d="M109.516 210.353C109.917 208.749 110.417 207.335 110.775 206.042C111.103 204.929 111.336 203.789 111.473 202.637C111.693 200.693 111.348 199.46 111.65 199.33C111.779 199.274 112.081 199.516 112.357 200.076C112.747 200.886 112.976 201.765 113.029 202.663C113.115 203.963 113.021 205.268 112.749 206.542C112.473 207.956 112.029 209.422 111.654 210.918C111.282 212.259 111.086 213.643 111.072 215.034C111.093 216.128 111.326 217.207 111.758 218.211C112.508 219.936 113.654 220.574 113.512 220.88C113.482 220.949 113.378 220.979 113.202 220.97C112.951 220.95 112.706 220.886 112.477 220.781C111.636 220.384 110.92 219.764 110.409 218.987C109.643 217.848 109.175 216.535 109.047 215.168C108.924 213.548 109.083 211.919 109.516 210.353Z" fill="#1B1E32"/>
<path opacity="0.2" d="M96.7627 215.396C97.3697 215.396 97.8618 215.3 97.8618 215.181C97.8618 215.062 97.3697 214.965 96.7627 214.965C96.1557 214.965 95.6636 215.062 95.6636 215.181C95.6636 215.3 96.1557 215.396 96.7627 215.396Z" fill="#1B1E32"/>
<path opacity="0.2" d="M96.2239 197.998C96.4459 196.038 96.5035 194.063 96.3963 192.093C96.3062 190.506 96.0314 188.935 95.5773 187.411C94.7843 184.825 93.668 183.437 93.9352 183.204C94.0386 183.109 94.4567 183.333 95.0558 183.92C95.881 184.774 96.5506 185.766 97.0342 186.851C97.7551 188.451 98.2219 190.154 98.4177 191.899C98.6566 194.003 98.6566 196.127 98.4177 198.231C98.1764 200.438 97.8057 202.486 97.4824 204.331C97.1592 206.176 96.8833 207.818 96.7152 209.202C96.3532 211.969 96.3747 213.72 96.0558 213.763C95.7368 213.806 95.1937 212.038 95.1636 209.116C95.1603 207.42 95.2654 205.725 95.4782 204.042C95.6851 202.154 95.9954 200.115 96.2239 197.998Z" fill="#1B1E32"/>
</g>
<path d="M623.181 150.657C622.967 150.657 622.759 150.591 622.583 150.467L611.664 142.87L604.874 149.781C604.776 149.884 604.659 149.966 604.53 150.023C604.4 150.08 604.261 150.11 604.12 150.111C603.979 150.113 603.84 150.086 603.709 150.031C603.579 149.977 603.46 149.897 603.36 149.796C603.261 149.695 603.182 149.574 603.128 149.442C603.075 149.309 603.048 149.167 603.049 149.024C603.05 148.88 603.079 148.739 603.134 148.607C603.19 148.475 603.27 148.356 603.371 148.256L611.409 140.062L623.779 148.671C623.966 148.801 624.106 148.989 624.18 149.206C624.255 149.423 624.259 149.659 624.192 149.879C624.125 150.099 623.991 150.292 623.809 150.429C623.627 150.565 623.407 150.64 623.181 150.64V150.657Z" fill="#9EBAB7"/>
<path d="M625.786 142.702C625.563 142.702 625.346 142.636 625.162 142.512L613.788 134.902L606.716 141.824C606.614 141.928 606.492 142.01 606.357 142.067C606.222 142.124 606.077 142.154 605.931 142.155C605.784 142.157 605.638 142.13 605.503 142.075C605.367 142.021 605.243 141.941 605.139 141.84C605.035 141.738 604.953 141.618 604.897 141.485C604.842 141.352 604.813 141.21 604.814 141.066C604.816 140.922 604.846 140.78 604.904 140.648C604.961 140.516 605.045 140.397 605.151 140.297L613.523 132.116L626.409 140.738C626.603 140.869 626.75 141.057 626.827 141.275C626.904 141.492 626.908 141.729 626.839 141.949C626.769 142.169 626.629 142.362 626.44 142.499C626.251 142.636 626.021 142.71 625.786 142.711V142.702Z" fill="#9EBAB7"/>
<path d="M627.56 134.764C627.337 134.764 627.12 134.698 626.936 134.574L615.558 126.97L608.482 133.887C608.38 133.99 608.258 134.073 608.124 134.13C607.989 134.186 607.844 134.216 607.697 134.218C607.55 134.219 607.405 134.192 607.269 134.138C607.133 134.084 607.009 134.004 606.905 133.902C606.801 133.801 606.719 133.681 606.663 133.548C606.607 133.415 606.579 133.273 606.58 133.129C606.581 132.986 606.612 132.844 606.669 132.712C606.727 132.58 606.811 132.461 606.917 132.361L615.284 124.169L628.175 132.785C628.369 132.915 628.515 133.103 628.593 133.321C628.67 133.538 628.674 133.774 628.605 133.994C628.535 134.214 628.395 134.407 628.206 134.544C628.016 134.681 627.787 134.755 627.551 134.756L627.56 134.764Z" fill="#9EBAB7"/>
<g opacity="0.2">
<path opacity="0.2" d="M643.72 136.726C643.262 136.726 642.824 136.544 642.501 136.221C642.177 135.898 641.996 135.459 641.996 135.002V56.5469C641.996 56.0896 642.177 55.651 642.501 55.3277C642.824 55.0043 643.262 54.8226 643.72 54.8226C644.177 54.8226 644.615 55.0043 644.939 55.3277C645.262 55.651 645.444 56.0896 645.444 56.5469V135.002C645.444 135.459 645.262 135.898 644.939 136.221C644.615 136.544 644.177 136.726 643.72 136.726Z" fill="#9EBAB7"/>
</g>
<g opacity="0.2">
<path opacity="0.2" d="M673.425 237.416H633.772V277.074H673.425V237.416Z" fill="#98E2CA"/>
<path opacity="0.2" d="M665.021 257.245C665.021 250.936 659.907 245.821 653.599 245.821C647.291 245.821 642.177 250.936 642.177 257.245C642.177 263.554 647.291 268.668 653.599 268.668C659.907 268.668 665.021 263.554 665.021 257.245Z" fill="white"/>
<path opacity="0.2" d="M652.305 255.486C652.305 254.534 651.534 253.762 650.581 253.762C649.629 253.762 648.857 254.534 648.857 255.486V259.008C648.857 259.96 649.629 260.732 650.581 260.732C651.534 260.732 652.305 259.96 652.305 259.008V255.486Z" fill="#9EBAB7"/>
<path opacity="0.2" d="M658.34 255.486C658.34 254.534 657.568 253.762 656.616 253.762C655.663 253.762 654.892 254.534 654.892 255.486V259.008C654.892 259.96 655.663 260.732 656.616 260.732C657.568 260.732 658.34 259.96 658.34 259.008V255.486Z" fill="#9EBAB7"/>
</g>
<g clip-path="url(#clip1_116:165)">
<path d="M160.827 127.522L188.862 125.796L194.628 186.818H168.987L160.827 127.522Z" fill="white"/>
<path d="M176.581 137.899L164.994 138.66L165.131 140.108L176.718 139.347L176.581 137.899Z" fill="url(#paint4_linear_116:165)"/>
<path d="M172.806 142.556L165.317 143.048L165.455 144.496L172.943 144.004L172.806 142.556Z" fill="url(#paint5_linear_116:165)"/>
<path d="M173.732 146.427L166.244 146.919L166.381 148.367L173.869 147.875L173.732 146.427Z" fill="url(#paint6_linear_116:165)"/>
<path d="M179.129 155.197L167.542 155.958L167.679 157.406L179.266 156.646L179.129 155.197Z" fill="url(#paint7_linear_116:165)"/>
<path d="M174.051 150.849L166.562 151.341L166.7 152.789L174.188 152.297L174.051 150.849Z" fill="url(#paint8_linear_116:165)"/>
<path d="M175.805 159.939L168.317 160.431L168.454 161.879L175.942 161.387L175.805 159.939Z" fill="url(#paint9_linear_116:165)"/>
<path d="M176.399 165.317L168.911 165.809L169.048 167.257L176.537 166.766L176.399 165.317Z" fill="url(#paint10_linear_116:165)"/>
<path d="M181.187 173.501L169.6 174.262L169.737 175.71L181.324 174.949L181.187 173.501Z" fill="url(#paint11_linear_116:165)"/>
<path d="M176.906 169.263L169.418 169.754L169.555 171.203L177.043 170.711L176.906 169.263Z" fill="url(#paint12_linear_116:165)"/>
<path d="M178.008 181.854L170.519 182.345L170.657 183.794L178.145 183.302L178.008 181.854Z" fill="url(#paint13_linear_116:165)"/>
<path d="M178.008 185.851L170.52 186.342L170.657 187.79L178.146 187.299L178.008 185.851Z" fill="url(#paint14_linear_116:165)"/>
<path d="M177.688 177.576L170.2 178.068L170.337 179.516L177.826 179.024L177.688 177.576Z" fill="url(#paint15_linear_116:165)"/>
<path d="M143.926 186.812H216.387C217.338 186.813 218.276 186.989 219.135 187.327C219.995 187.665 220.753 188.157 221.357 188.768C221.961 189.379 222.395 190.093 222.628 190.86C222.861 191.627 222.887 192.427 222.705 193.204L201.023 283.412C200.733 284.623 199.949 285.713 198.804 286.498C197.659 287.283 196.223 287.714 194.74 287.718H163.71C162.202 287.72 160.742 287.281 159.584 286.478C158.425 285.675 157.642 284.559 157.371 283.325L137.58 193.134C137.41 192.361 137.447 191.566 137.687 190.805C137.928 190.045 138.366 189.338 138.972 188.735C139.578 188.131 140.335 187.646 141.191 187.314C142.048 186.982 142.981 186.811 143.926 186.812Z" fill="#1B1E32"/>
<path opacity="0.1" d="M194.237 287.741H166.425C166.425 287.741 188.338 283.203 192.632 258.915C196.925 234.627 218.956 196.888 222.824 192.094C222.712 192.559 222.768 192.977 222.656 193.442C218.321 211.408 214.426 225.743 213.874 229.467C212.415 239.398 206.656 252.826 201.588 280.176C201.588 280.339 201.504 280.571 201.49 280.856C201.169 286.26 197.721 287.741 194.237 287.741Z" fill="#1B1E32"/>
<path d="M130.739 135.046L149.748 186.818H164.848L144.54 130.712L130.739 135.046Z" fill="#A09E9E"/>
<path d="M130.739 117.818V135.046L144.54 130.712L133.957 116.54L130.739 117.818Z" fill="white"/>
<path d="M130.739 117.818L133.957 116.54L130.739 113.477V117.818Z" fill="url(#paint16_linear_116:165)"/>
<path d="M205.553 186.818L222.824 139.003L205.553 136.342L197.078 186.818H205.553Z" fill="#FE4370"/>
<path d="M205.553 136.342L207.976 127.527L224.241 130.072L222.824 139.003" fill="white"/>
<path d="M212.527 92.3856C212.527 92.3856 218.007 98.4866 209.951 106.261C201.895 114.036 201.532 115.721 207.976 127.522L224.241 130.073C224.241 130.073 237.121 127.563 237.952 117.034C238.866 105.913 227.348 96.6737 212.527 92.3856Z" fill="#FE4370"/>
<path d="M235.515 107.888C235.515 107.888 235.515 129.462 215.745 128.777L235.515 107.888Z" fill="url(#paint17_linear_116:165)"/>
</g>
<path d="M111.45 225.154H159.185C159.445 225.154 159.702 225.205 159.942 225.305C160.182 225.404 160.4 225.55 160.584 225.734C160.768 225.917 160.913 226.136 161.013 226.376C161.112 226.616 161.163 226.873 161.163 227.133V276.49C161.164 277.731 160.92 278.959 160.446 280.104C159.972 281.25 159.277 282.292 158.4 283.169C157.524 284.046 156.483 284.741 155.337 285.216C154.192 285.691 152.964 285.935 151.724 285.935H118.924C116.42 285.935 114.02 284.941 112.249 283.17C110.479 281.4 109.485 278.998 109.485 276.495V227.129C109.485 226.869 109.536 226.611 109.635 226.371C109.735 226.131 109.88 225.913 110.064 225.729C110.248 225.546 110.466 225.4 110.706 225.301C110.946 225.201 111.203 225.15 111.463 225.15L111.45 225.154Z" fill="#FE4370"/>
<path d="M160.683 264.117H153.571V255.496H160.683C162.455 255.496 164.154 254.792 165.407 253.539C166.66 252.286 167.363 250.586 167.363 248.814C167.363 247.042 166.66 245.343 165.407 244.09C164.154 242.837 162.455 242.133 160.683 242.133H160.467V233.511H160.683C164.741 233.511 168.633 235.123 171.502 237.993C174.372 240.863 175.984 244.756 175.984 248.814C175.984 252.873 174.372 256.765 171.502 259.635C168.633 262.505 164.741 264.117 160.683 264.117Z" fill="#FE4370"/>
<path opacity="0.4" d="M160.935 268.476V276.235C160.935 283.236 155.258 286.327 148.259 286.327L118.902 285.896C113.321 285.896 109.485 283.74 109.485 277.274C114.816 277.813 141.97 285.887 160.935 268.476Z" fill="#FE4370"/>
<path d="M111.97 36.7342L120.056 24.511C124.357 18.0103 131.063 13.4844 138.7 11.9291C146.337 10.3737 154.279 11.9162 160.779 16.2174L199.065 41.552C200.643 42.596 201.741 44.2241 202.119 46.0782C202.496 47.9323 202.122 49.8604 201.078 51.4384L168.434 100.784C167.39 102.362 165.762 103.461 163.908 103.838C162.054 104.216 160.126 103.841 158.548 102.797L120.263 77.4627C113.763 73.1616 109.237 66.4542 107.682 58.8161C106.127 51.1781 107.669 43.235 111.97 36.7342Z" fill="#FE4370"/>
<defs>
<linearGradient id="paint0_linear_116:165" x1="499.628" y1="153.395" x2="631.104" y2="153.395" gradientUnits="userSpaceOnUse">
<stop stop-color="#E5A4ED"/>
<stop offset="1" stop-color="#CBC0E2"/>
</linearGradient>
<linearGradient id="paint1_linear_116:165" x1="558.191" y1="267.344" x2="570.976" y2="267.344" gradientUnits="userSpaceOnUse">
<stop stop-color="#707070"/>
<stop offset="1" stop-color="white"/>
</linearGradient>
<linearGradient id="paint2_linear_116:165" x1="557.901" y1="267.344" x2="571.266" y2="267.344" gradientUnits="userSpaceOnUse">
<stop stop-color="#E4C2E8"/>
<stop offset="1" stop-color="#CBC6E0"/>
</linearGradient>
<linearGradient id="paint3_linear_116:165" x1="386.728" y1="102.096" x2="676.774" y2="250.314" gradientUnits="userSpaceOnUse">
<stop stop-color="#FE4370"/>
<stop offset="1" stop-color="#4C0E95"/>
</linearGradient>
<linearGradient id="paint4_linear_116:165" x1="164.992" y1="139.007" x2="176.713" y2="139.007" gradientUnits="userSpaceOnUse">
<stop stop-color="#F5C924"/>
<stop offset="1" stop-color="#7A5BF5"/>
</linearGradient>
<linearGradient id="paint5_linear_116:165" x1="165.328" y1="143.395" x2="172.911" y2="143.141" gradientUnits="userSpaceOnUse">
<stop stop-color="#F5C924"/>
<stop offset="1" stop-color="#7A5BF5"/>
</linearGradient>
<linearGradient id="paint6_linear_116:165" x1="166.254" y1="147.265" x2="173.837" y2="147.012" gradientUnits="userSpaceOnUse">
<stop stop-color="#F5C924"/>
<stop offset="1" stop-color="#7A5BF5"/>
</linearGradient>
<linearGradient id="paint7_linear_116:165" x1="167.54" y1="156.306" x2="179.261" y2="156.306" gradientUnits="userSpaceOnUse">
<stop stop-color="#F5C924"/>
<stop offset="1" stop-color="#7A5BF5"/>
</linearGradient>
<linearGradient id="paint8_linear_116:165" x1="166.573" y1="151.687" x2="174.156" y2="151.434" gradientUnits="userSpaceOnUse">
<stop stop-color="#F5C924"/>
<stop offset="1" stop-color="#7A5BF5"/>
</linearGradient>
<linearGradient id="paint9_linear_116:165" x1="168.327" y1="160.777" x2="175.91" y2="160.524" gradientUnits="userSpaceOnUse">
<stop stop-color="#F5C924"/>
<stop offset="1" stop-color="#7A5BF5"/>
</linearGradient>
<linearGradient id="paint10_linear_116:165" x1="168.922" y1="166.156" x2="176.504" y2="165.902" gradientUnits="userSpaceOnUse">
<stop stop-color="#F5C924"/>
<stop offset="1" stop-color="#7A5BF5"/>
</linearGradient>
<linearGradient id="paint11_linear_116:165" x1="169.598" y1="174.609" x2="181.319" y2="174.609" gradientUnits="userSpaceOnUse">
<stop stop-color="#F5C924"/>
<stop offset="1" stop-color="#7A5BF5"/>
</linearGradient>
<linearGradient id="paint12_linear_116:165" x1="169.428" y1="170.101" x2="177.011" y2="169.848" gradientUnits="userSpaceOnUse">
<stop stop-color="#F5C924"/>
<stop offset="1" stop-color="#7A5BF5"/>
</linearGradient>
<linearGradient id="paint13_linear_116:165" x1="170.53" y1="182.692" x2="178.113" y2="182.439" gradientUnits="userSpaceOnUse">
<stop stop-color="#F5C924"/>
<stop offset="1" stop-color="#7A5BF5"/>
</linearGradient>
<linearGradient id="paint14_linear_116:165" x1="170.531" y1="186.689" x2="178.113" y2="186.436" gradientUnits="userSpaceOnUse">
<stop stop-color="#F5C924"/>
<stop offset="1" stop-color="#7A5BF5"/>
</linearGradient>
<linearGradient id="paint15_linear_116:165" x1="170.211" y1="178.414" x2="177.793" y2="178.161" gradientUnits="userSpaceOnUse">
<stop stop-color="#F5C924"/>
<stop offset="1" stop-color="#7A5BF5"/>
</linearGradient>
<linearGradient id="paint16_linear_116:165" x1="130.739" y1="287.227" x2="145.575" y2="287.227" gradientUnits="userSpaceOnUse">
<stop stop-color="#E5A4ED"/>
<stop offset="1" stop-color="#7A5BF5"/>
</linearGradient>
<linearGradient id="paint17_linear_116:165" x1="217.89" y1="116.586" x2="234.093" y2="119.142" gradientUnits="userSpaceOnUse">
<stop stop-color="white"/>
<stop offset="1" stop-color="white" stop-opacity="0"/>
</linearGradient>
<clipPath id="clip0_116:165">
<rect width="131.558" height="261.35" fill="white" transform="translate(499.546 22.7611)"/>
</clipPath>
<clipPath id="clip1_116:165">
<rect width="107.262" height="195.365" fill="white" transform="translate(130.739 92.3835)"/>
</clipPath>
</defs>
</svg>
