<svg width="28" height="35" viewBox="0 0 28 35" fill="none" xmlns="http://www.w3.org/2000/svg">
<mask id="path-1-inside-1_159:5" fill="white">
<path fill-rule="evenodd" clip-rule="evenodd" d="M19.136 25.0809L24.7181 13.3012L12.6172 7.56688L11.1424 10.6792L8.30645 9.33533L2.72433 21.115L14.8252 26.8493L16.3001 23.737L19.136 25.0809ZM16.3001 23.737L20.4074 15.0697L11.1424 10.6792L7.0351 19.3465L16.3001 23.737Z"/>
</mask>
<path fill-rule="evenodd" clip-rule="evenodd" d="M19.136 25.0809L24.7181 13.3012L12.6172 7.56688L11.1424 10.6792L8.30645 9.33533L2.72433 21.115L14.8252 26.8493L16.3001 23.737L19.136 25.0809ZM16.3001 23.737L20.4074 15.0697L11.1424 10.6792L7.0351 19.3465L16.3001 23.737Z" fill="black"/>
<path d="M24.7181 13.3012L31.0438 16.2988L34.0414 9.97316L27.7157 6.97555L24.7181 13.3012ZM19.136 25.0809L16.1384 31.4066L22.4641 34.4042L25.4617 28.0785L19.136 25.0809ZM12.6172 7.56688L15.6148 1.24119L9.28915 -1.75642L6.29154 4.56927L12.6172 7.56688ZM8.30645 9.33533L11.3041 3.00964L4.97837 0.0120362L1.98076 6.33772L8.30645 9.33533ZM2.72433 21.115L-3.60136 18.1174L-6.59897 24.4431L-0.273284 27.4407L2.72433 21.115ZM14.8252 26.8493L11.8276 33.175L18.1533 36.1726L21.1509 29.8469L14.8252 26.8493ZM20.4074 15.0697L26.733 18.0673L29.7307 11.7416L23.405 8.74401L20.4074 15.0697ZM7.0351 19.3465L0.709417 16.3489L-2.28819 22.6746L4.0375 25.6722L7.0351 19.3465ZM18.3924 10.3036L12.8103 22.0833L25.4617 28.0785L31.0438 16.2988L18.3924 10.3036ZM9.61962 13.8926L21.7205 19.6269L27.7157 6.97555L15.6148 1.24119L9.61962 13.8926ZM17.468 13.6768L18.9429 10.5645L6.29154 4.56927L4.81667 7.6816L17.468 13.6768ZM5.30884 15.661L8.14475 17.0049L14.14 4.35352L11.3041 3.00964L5.30884 15.661ZM9.05001 24.1126L14.6321 12.3329L1.98076 6.33772L-3.60136 18.1174L9.05001 24.1126ZM17.8228 20.5236L5.72193 14.7893L-0.273284 27.4407L11.8276 33.175L17.8228 20.5236ZM9.97441 20.7394L8.49954 23.8517L21.1509 29.8469L22.6258 26.7346L9.97441 20.7394ZM22.1336 18.7552L19.2977 17.4113L13.3025 30.0627L16.1384 31.4066L22.1336 18.7552ZM14.0817 12.0721L9.97441 20.7394L22.6258 26.7346L26.733 18.0673L14.0817 12.0721ZM8.14475 17.0049L17.4097 21.3954L23.405 8.74401L14.14 4.35352L8.14475 17.0049ZM13.3608 22.3441L17.468 13.6768L4.81667 7.6816L0.709417 16.3489L13.3608 22.3441ZM19.2977 17.4113L10.0327 13.0208L4.0375 25.6722L13.3025 30.0627L19.2977 17.4113Z" fill="black" mask="url(#path-1-inside-1_159:5)"/>
<path d="M9.83071 34.2829C14.8976 9.02964 19.6484 2.13614 21.3903 1.84605" stroke="black" stroke-width="3" stroke-linejoin="round"/>
</svg>
